<?xml version="1.0" encoding="utf-8"?>
<!-- Generator: Adobe Illustrator 26.3.1, SVG Export Plug-In . SVG Version: 6.00 Build 0)  -->
<svg version="1.1" id="Layer_1" xmlns="http://www.w3.org/2000/svg" xmlns:xlink="http://www.w3.org/1999/xlink" x="0px" y="0px"
	 viewBox="0 0 566 566" style="enable-background:new 0 0 566 566;" xml:space="preserve">
<style type="text/css">
	.st0{fill:#FFFFFF;}
</style>
<path id="XMLID_4_" class="st0" d="M353.5,178.2l-23.7,41l-23.5,40.7l-23.5,40.7l-20.7,35.9h-47l44.2-76.6l23.5-40.7l23.5-40.7
	l46.4-80.3l0.8-1.4l161.9,280.5h45.5L352.4,16.2l-69.9,121.1L259,178l-23.5,40.7l-91.6,158.6h47.6h47h47h41.5l23.2,40.2h-87.8h-47
	h-47l-94.7,0l161.8-280.2l-23.2-40.2L3.8,458.2h141h47h47h181.9L397.6,418l-23.5-40.7l-23.5-40.7l-20.7-35.9l23.5-40.7l44.2,76.6
	h0.3l23.5,40.7h-0.3l23.5,40.7l46.5,80.6l0.2,0.3H168.4L145,539.3h417l-70-121.3l-23.5-40.7 M306.3,341.4l-2.8-4.8h5.6L306.3,341.4z
	"/>
</svg>
